<?xml version="1.0" encoding="utf-8"?>
<!-- Generator: Adobe Illustrator 16.0.0, SVG Export Plug-In . SVG Version: 6.00 Build 0)  -->
<!DOCTYPE svg PUBLIC "-//W3C//DTD SVG 1.1//EN" "http://www.w3.org/Graphics/SVG/1.1/DTD/svg11.dtd">
<svg version="1.1" id="Layer_1" xmlns="http://www.w3.org/2000/svg" xmlns:xlink="http://www.w3.org/1999/xlink" x="0px" y="0px"
	 width="24px" height="24px" viewBox="0 0 24 24" enable-background="new 0 0 24 24" xml:space="preserve">
<g id="magnifier">
	<path fill="#404A58" d="M20.799,19.686l-4.391-4.377c0.828-1.129,1.318-2.521,1.318-4.021c0-3.779-3.078-6.859-6.868-6.859
		c-3.777,0-6.866,3.08-6.866,6.859c0,3.778,3.082,6.854,6.866,6.854c1.441,0,2.769-0.43,3.875-1.188l4.396,4.401L20.799,19.686z
		 M6.014,11.289c0-2.682,2.181-4.852,4.861-4.852c2.674,0,4.841,2.169,4.841,4.852c0,2.668-2.172,4.854-4.841,4.854
		C8.189,16.136,6.014,13.962,6.014,11.289z"/>
</g>
</svg>
