<?xml version="1.0" encoding="utf-8"?>
<!-- Generator: Adobe Illustrator 16.0.0, SVG Export Plug-In . SVG Version: 6.00 Build 0)  -->
<!DOCTYPE svg PUBLIC "-//W3C//DTD SVG 1.1//EN" "http://www.w3.org/Graphics/SVG/1.1/DTD/svg11.dtd">
<svg version="1.1" id="Layer_1" xmlns="http://www.w3.org/2000/svg" xmlns:xlink="http://www.w3.org/1999/xlink" x="0px" y="0px"
	 width="24px" height="24px" viewBox="0 0 24 24" enable-background="new 0 0 24 24" xml:space="preserve">
<g id="tel">
	<path fill="#3F4957" d="M17.076,4.802c0-0.795-0.648-1.454-1.452-1.454H8.381c-0.8,0-1.457,0.659-1.457,1.454v14.486
		c0,0.812,0.655,1.46,1.457,1.46h7.246c0.801,0,1.449-0.648,1.449-1.46V4.802L17.076,4.802z M10.917,4.802h2.179
		c0.188,0,0.357,0.16,0.357,0.367c0,0.195-0.156,0.356-0.357,0.356h-2.179c-0.201,0-0.37-0.161-0.37-0.356
		C10.551,4.963,10.715,4.802,10.917,4.802z M12.008,19.297c-0.399,0-0.725-0.318-0.725-0.721c0-0.396,0.325-0.729,0.725-0.729
		c0.396,0,0.729,0.332,0.729,0.729C12.727,18.979,12.413,19.297,12.008,19.297z M15.63,17.124H8.387V6.957h7.243V17.124
		L15.63,17.124z"/>
</g>
</svg>
