<?xml version="1.0" encoding="utf-8"?>
<!-- Generator: Adobe Illustrator 16.0.0, SVG Export Plug-In . SVG Version: 6.00 Build 0)  -->
<!DOCTYPE svg PUBLIC "-//W3C//DTD SVG 1.1//EN" "http://www.w3.org/Graphics/SVG/1.1/DTD/svg11.dtd">
<svg version="1.1" id="Layer_1" xmlns="http://www.w3.org/2000/svg" xmlns:xlink="http://www.w3.org/1999/xlink" x="0px" y="0px"
	 width="211.348px" height="71.148px" viewBox="0 0 211.348 71.148" enable-background="new 0 0 211.348 71.148"
	 xml:space="preserve">
<g>
	<path fill="#DFEAB8" d="M79.924,29.422c0.444-0.479,0.866-0.933,1.237-1.369c0.142-0.179,13.731-18.901,11.115-25.296
		c-0.425-1.04-1.23-1.7-2.393-1.969c-0.165-0.081-0.428-0.138-0.847-0.138h-0.466v0.009c-3.886,0.19-7.612,5.788-9.507,9.147
		c-2.64,4.687-4.356,9.952-5.683,14.467c-0.488,1.459-0.692,2.985-0.889,4.461L72.48,28.83c-0.942,5.191-1.321,9.671-1.158,13.692
		c-0.093,0.283-0.185,0.541-0.268,0.735c-0.065,0.13-0.175,0.377-0.323,0.708c-2.683,6.025-4.084,7.291-4.788,7.291c0,0,0,0-0.001,0
		c-0.064,0-0.258-0.002-0.522-0.367c-1.562-1.944-0.359-6.463,0.099-8.188c0.142-0.662,0.36-1.498,0.609-2.447
		c1.323-5.049,3.323-12.679-0.25-15.607c-0.646-0.574-1.374-0.864-2.164-0.864c-1.975,0-3.61,1.778-4.235,2.562
		c-2.45,3.351-4.634,7.007-7.068,11.849c0.573-2.109,1.322-4.963-0.621-6.519c-0.521-0.37-1.045-0.558-1.563-0.558
		c-1.661,0-2.713,1.845-3.481,3.192c-0.109,0.19-0.211,0.369-0.295,0.51c-1.093,1.639-1.897,3.45-2.677,5.202
		c-0.665,1.494-1.301,2.924-2.094,4.25c-0.243-3.708,1.025-8.426,1.98-11.977l0.17-0.646c0.056-0.34,0.158-0.695,0.267-1.072
		c0.274-0.954,0.585-2.036,0.128-3.132c-0.392-0.78-1.293-1.326-2.19-1.326c-0.25,0-0.489,0.043-0.761,0.147
		c-2.061,1.034-2.843,5.068-3.264,7.236l-0.091,0.467c-0.624,3.121-1.077,6.284-1.347,9.403c-1.117,2.188-2.283,4.282-4.179,5.933
		c-0.586,0.587-1.127,0.884-1.606,0.884c-0.92,0-1.563-1.146-1.864-1.828c-0.519-1.174-0.75-2.559-0.75-3.428
		c-0.237-6.115,1.07-12.581,2.334-18.834c0.365-1.804,0.725-3.585,1.055-5.392c0.011-0.01,0.064-0.033,0.182-0.039
		c1.335,0.292,2.655,0.461,3.856,0.432c1.688,0.311,3.328-1.373,3.522-2.82c0.072-0.364-0.014-0.712-0.25-1.003l-0.203-0.249
		l-0.312,0.081c-0.72,0.188-1.191,0.668-1.371,1.392c-0.49,0.748-1.092,1.068-1.994,1.068c-0.609,0-1.278-0.145-1.986-0.297
		c-0.3-0.064-0.603-0.13-0.945-0.19c-0.066-0.008-0.105-0.013-0.112-0.018c-0.003-0.026-0.005-0.102,0.037-0.257
		c0.269-1.179,0.54-2.356,0.813-3.535l0.667-2.906c0.034-0.243,0.126-0.553,0.224-0.881c0.323-1.086,0.767-2.573-0.545-3.447
		c-0.346-0.197-0.688-0.297-1.02-0.297c-1.923,0-2.695,3.076-3.442,6.052c-0.34,1.355-0.854,3.405-1.225,3.572
		c-1.235-0.613-2.607-0.77-3.935-0.921l-0.768-0.091l-0.054,0.005c-1.066,0.1-1.927,0.629-2.707,1.669l-0.101,0.134v0.167
		c0,0.762,0.428,1.103,0.853,1.103c0.293,0,0.583-0.15,0.934-0.515c0.231-0.318,0.507-0.467,0.87-0.467
		c0.048,0,0.097,0.004,0.213,0.011c1.397-0.048,2.846,0.218,4.212,0.737c0.046,0.028,0.079,0.052,0.104,0.069
		c-1.149,5.284-2.126,10.705-2.99,16.595c-0.072,0.818-0.181,1.629-0.287,2.438c-0.201,1.507-0.408,3.064-0.371,4.648
		c-0.034,0.087-0.07,0.179-0.126,0.3c-0.432,1.291-1.056,2.541-1.66,3.75l-0.146,0.291c-2.672,4.461-3.749,4.687-3.938,4.687
		c-0.227,0-0.49-0.544-0.564-1.761c-0.195-3.107,0.27-6.789,1.39-10.982c0.304-1.629,0.505-3.232,0.596-4.798
		c0-0.493,0.044-1.022,0.09-1.568c0.151-1.82,0.322-3.886-1.026-5.386c-0.819-0.911-1.89-1.392-3.093-1.392
		c-1.412,0-2.896,0.682-3.957,1.813c-2.895,2.896-4.186,7.007-5.435,10.984c-0.312,0.992-0.613,1.953-0.933,2.879
		c-0.013-2.283,0.369-4.659,0.74-6.977c0.103-0.644,0.204-1.278,0.296-1.9c0.068-0.472,0.132-0.94,0.192-1.403
		c0.437-3.274,0.813-6.104,3.366-8.343l0.256-0.292c3.287-3.758,7.012-8.017,8.943-12.849l0.26-0.565
		c1.081-2.326,3.093-6.654,1.476-8.6c-1.252-1.246-3.346-1.104-6.019,0.422c-3.378,1.688-5.569,5.813-6.914,8.751
		c-4.286,8.397-6.5,18.864-6.967,32.921c-0.021,0.294-0.047,0.627-0.077,0.984c-0.186,2.213-0.438,5.242,0.497,6.921
		c0.41,0.82,1.782,1.813,2.87,1.813c0.499,0,0.798-0.211,0.962-0.389c0.279-0.303,0.396-0.746,0.346-1.357
		c-0.512-3.26,0.791-6.553,2.051-9.737c0.466-1.177,0.946-2.392,1.31-3.55c0.766-2.146,3.963-8.352,5.484-8.352
		c0.289,0,0.509,0.393,0.627,0.682c0.298,0.974,0.235,2.074,0.176,3.14c-0.026,0.455-0.051,0.905-0.05,1.315
		c-0.104,1.634-0.556,3.459-1.032,5.394c-1.058,4.28-2.255,9.133,0.471,12.703c0.915,1.201,1.938,1.812,3.036,1.812
		c3.21,0,5.889-5.179,7.041-7.806c0.817,2.854,2.594,5.729,5.484,6.078c2.96,0.354,5.22-2.111,6.925-4.765
		c-0.017,1.584,0.161,3.336,1.334,4.271c1.021,0.91,2.825,0.725,3.668-0.359l0.068-0.119c0.258-0.635,0.417-1.302,0.463-1.902
		c0.182-0.708,0.376-1.413,0.567-2.071c1.347-3.366,3.071-6.775,5.142-10.162c-1.33,7.827-1.982,13.313-0.848,14.658
		c0.214,0.253,0.491,0.387,0.803,0.387c0.06,0,0.12-0.005,0.238-0.027c2.893-0.821,3.471-3.579,3.98-6.014
		c0.169-0.805,0.328-1.565,0.56-2.258c1.399-4.184,3.543-8.475,6.568-13.143c0.709-1.242,2.639-3.676,3.283-3.682
		c0.001,0.001,0.118,0.106,0.16,0.606c0.201,2.419-0.345,4.87-0.872,7.238c-0.165,0.74-0.329,1.478-0.472,2.213l-0.07,0.36
		c-0.66,3.367-2.207,11.254,0.462,14.498c0.987,1.199,2.373,1.655,4.32,1.287c2.72-0.627,4.226-3.092,5.331-5.4
		c0.346-0.648,0.638-1.301,0.889-1.926c0.138,0.474,0.297,0.943,0.475,1.407c0.79,2.378,2.825,4.937,5.426,4.937
		c0.186,0,0.371-0.012,0.529-0.034c3.958-0.305,6.342-5.239,7.919-8.507c0.178-0.368,0.347-0.717,0.523-1.074
		c0.039-0.1,0.121-0.26,0.222-0.457c0.6-1.188,1.507-2.981,0.474-3.673c-0.111-0.075-0.241-0.115-0.375-0.115
		c-0.661,0-1.195,0.868-2.29,3.715c-0.094,0.244-0.162,0.424-0.206,0.516c-0.889,2.078-4.469,7.203-6.563,7.203
		c-0.799,0-1.364-0.877-1.674-2.576c-0.507-4.45-0.868-8.471-0.147-12.605C76.497,33.109,78.396,31.065,79.924,29.422z M86.47,5.219
		c1.028-1.167,1.976-1.758,2.815-1.758c0.262,0,0.511,0.057,0.73,0.157c1.023,0.558,0.518,2.86,0.235,4.018l0,0l-0.069,0.283
		c-0.012,0.045-0.022,0.094-0.036,0.146l0,0c-2.02,8.115-7.38,15.437-11.837,20.924c-0.122,0.163-0.243,0.333-0.366,0.506
		c-0.32,0.449-0.649,0.909-1.024,1.287C77.229,25.957,81.703,10.623,86.47,5.219z M8.296,19.8l0.088-0.299
		c0.348-1.167,0.735-2.347,1.144-3.487c0.383-0.956,0.73-1.925,1.078-2.894c0.521-1.449,1.059-2.948,1.696-4.342l0.262-0.502
		c0.925-1.781,1.881-3.625,3.399-4.965C16.56,2.715,17.34,2.03,18.084,2.03c0.074,0,0.146,0.008,0.196,0.017
		c0.077,0.02,0.157,0.06,0.228,0.224c0.56,1.316-1.117,5.626-1.656,6.569c-3.193,6.4-6.181,10.772-9.099,13.309
		C7.892,21.361,8.073,20.575,8.296,19.8z"/>
	<path fill="#DFEAB8" d="M211.33,40.056c-0.036-0.189-0.127-0.355-0.265-0.486l-0.006-0.104l-0.401-0.135l-0.007,0.018l-0.057-0.025
		l0.001-0.008l-0.111-0.02h-0.449l-0.021,0.096c-0.6,0.269-1.143,1.088-1.727,2.041c-0.133,0.217-0.24,0.396-0.343,0.531
		c-0.532,0.835-1.186,1.563-1.875,2.332l-0.338,0.378c-0.867,0.868-1.748,1.675-2.646,2.427c-0.195,0.195-0.292,0.209-0.291,0.211
		c-0.313-0.121-0.6-1.305-0.854-3.516c-0.053-0.458-0.098-0.844-0.146-1.076c-0.194-0.941-0.409-1.891-0.626-2.845
		c-0.558-2.452-1.131-4.989-1.351-7.423c0-1.412,0.227-2.396,0.715-3.163c0.466-0.642,1.021-0.775,1.407-0.775
		c0.646,0,1.311,0.384,1.648,0.955c0.313,0.527,0.313,1.136-0.019,1.745c-0.193,0.423-0.466,0.701-0.839,0.849
		c-0.541,0.223-0.985,0.578-1.321,1.058l-0.273,0.389l0.375,0.292c0.762,0.593,1.623,0.625,2.417,0.1
		c0.79-0.51,1.285-1.236,1.458-2.11c0.512-1.647,0.088-3.819-1.736-4.793c-0.557-0.262-1.132-0.395-1.709-0.395
		c-2.991,0-5.264,3.493-5.686,5.888c-0.611,2.792-0.191,5.574,0.213,8.265l0.023,0.154c-0.242,0.807-0.513,1.61-0.783,2.35
		c-0.065,0.131-0.176,0.379-0.324,0.713c-2.683,6.022-4.084,7.287-4.786,7.287c-0.001,0-0.001,0-0.001,0
		c-0.064,0-0.258-0.002-0.522-0.367c-1.564-1.947-0.36-6.463,0.1-8.188c0.141-0.661,0.359-1.496,0.607-2.445
		c1.323-5.05,3.323-12.683-0.25-15.609c-0.646-0.573-1.374-0.864-2.164-0.864c-1.975,0-3.609,1.778-4.234,2.562
		c-2.451,3.352-4.635,7.008-7.07,11.851c0.572-2.107,1.324-4.962-0.621-6.521c-0.52-0.37-1.045-0.558-1.563-0.558
		c-1.66,0-2.713,1.845-3.48,3.19c-0.108,0.19-0.211,0.37-0.296,0.511c-1.092,1.639-1.896,3.45-2.677,5.202
		c-0.664,1.494-1.301,2.924-2.094,4.25c-0.243-3.709,1.024-8.428,1.979-11.979l0.17-0.644c0.057-0.34,0.158-0.695,0.268-1.072
		c0.273-0.954,0.585-2.036,0.128-3.132c-0.394-0.78-1.293-1.326-2.191-1.326c-0.249,0-0.487,0.043-0.76,0.147
		c-2.063,1.034-2.844,5.07-3.264,7.239l-0.093,0.464c-0.727,3.64-1.184,6.955-1.395,10.13c-1.523,2.235-2.982,4.34-5.403,5.873
		c-0.199,0.126-0.31,0.14-0.347,0.14c-0.023,0-0.048,0-0.096-0.056c-0.529-0.626-0.353-3.469-0.064-5.193
		c0.144-0.856,0.262-1.727,0.383-2.599c0.234-1.704,0.478-3.466,0.902-5.121c0.148-0.583,0.342-1.19,0.539-1.813
		c0.58-1.841,1.182-3.743,0.948-5.616c-0.18-0.976-1.034-1.58-2.233-1.58c-0.244,0-0.486,0.026-0.783,0.097
		c-1.096,0.399-1.641,1.418-2.121,2.317c-0.114,0.213-0.227,0.422-0.33,0.596c-0.227,0.34-0.459,0.7-0.696,1.071
		c-1.436,2.223-3.062,4.742-5.194,5.81c-0.177,0.079-0.274,0.091-0.328,0.099c-0.045-0.047-0.245-0.369,0.214-2.19
		c0.111-0.559,0.417-1.393,0.771-2.359c0.957-2.608,2.147-5.856,1.173-7.888c-0.348-0.724-0.94-1.229-1.753-1.501
		c-0.328-0.116-0.619-0.173-0.891-0.173c-1.64,0-1.732,1.851-1.802,3.203c-0.022,0.488-0.047,0.949-0.128,1.245
		c-0.239,0.879-0.523,1.79-0.813,2.716c-0.689,2.208-1.4,4.487-1.629,6.674l-1.429,0.369l-0.17,0.08
		c-0.227,0.164-0.463,0.258-0.719,0.285c-0.033-0.373-0.064-0.767-0.097-1.175c-0.438-5.515-1.102-13.849-8.336-13.849
		c-0.116,0-0.234,0.002-0.336,0.006c-1.845,0-3.46,0.755-4.676,2.184c-1.483,1.744-2.164,4.313-1.774,6.708l0.049,0.147
		c0.222,0.434,0.266,0.867,0.133,1.325c-0.397,0.621-0.825,1.235-1.284,1.85c-0.708,1.083-1.31,2.26-1.79,3.498
		c-1.059,1.199-3.477,2.881-5.227,2.882c-0.308,0-0.582-0.056-0.791-0.146c-0.291-0.207-1.457-1.845-2.486-3.289
		c-2.438-3.422-3.748-5.153-4.597-5.821c0.251-0.235,0.526-0.456,0.811-0.683c0.344-0.274,0.698-0.558,1.006-0.865
		c5.904-5.239,12.229-16.569,12.229-25.109c-0.25-4.953-2.705-5.692-4.146-5.692c-2.923,0-6.515,2.921-8.3,5.745
		c-4.15,6.571-6.955,14.529-8.329,23.633c-0.516,2.684-0.966,5.109-1.257,7.63c-0.427,5.318-0.809,11.482,0.078,17.328
		c0.079,0.488,0.156,1.004,0.236,1.539c0.729,4.877,1.73,11.559,6.596,14.013c0.937,0.473,1.879,0.712,2.806,0.712
		c3.667,0,6.395-3.729,7.193-7.411c1.373-6.354,1.117-11.929-0.854-18.634l-0.058-0.126c-0.267-0.423-0.371-0.862-0.316-1.344
		c0.342-0.255,1.611-0.624,2.474-0.873c0.81-0.234,1.591-0.461,2.215-0.709c-0.314,2.841,0.515,5.888,2.226,7.999
		c1.773,2.191,4.265,3.099,7.007,2.531c2.632-0.543,4.965-2.66,6.935-6.291c0.372-0.694,0.624-1.502,0.868-2.282
		c0.512-1.631,0.994-3.171,2.416-3.646c0.271-0.068,0.543-0.133,0.815-0.195c0.284-0.067,0.57-0.135,0.854-0.205
		c0.206,2.055,1.13,2.509,1.905,2.509c2.005,0,4.912-3.155,7.967-6.672c0.332-0.381,0.684-0.786,0.986-1.123
		c-0.123,0.968-0.48,2.017-0.83,3.04c-0.324,0.951-0.659,1.934-0.797,2.84c-0.073,0.48-0.166,0.982-0.261,1.496
		c-0.494,2.695-1.053,5.748,0.565,8.07c0.542,0.977,1.265,1.668,2.19,2.069c0.438,0.146,0.889,0.221,1.338,0.221
		c2.693,0,4.963-2.628,6.496-4.785c-0.03,1.633,0.109,3.489,1.331,4.464c1.023,0.91,2.826,0.725,3.668-0.36l0.069-0.117
		c0.257-0.636,0.417-1.303,0.462-1.903c0.183-0.708,0.377-1.413,0.568-2.071c1.346-3.365,3.07-6.774,5.142-10.162
		c-1.331,7.826-1.982,13.313-0.848,14.658c0.214,0.253,0.491,0.387,0.803,0.387c0.061,0,0.121-0.005,0.239-0.026
		c2.893-0.822,3.471-3.581,3.979-6.015c0.169-0.806,0.328-1.565,0.561-2.258c1.398-4.184,3.543-8.475,6.566-13.143
		c0.71-1.242,2.642-3.675,3.284-3.683c0.001,0.001,0.118,0.107,0.159,0.607c0.205,2.415-0.342,4.863-0.869,7.23
		c-0.166,0.742-0.331,1.482-0.475,2.221l-0.071,0.367c-0.659,3.365-2.205,11.25,0.463,14.491c0.987,1.199,2.372,1.654,4.321,1.287
		c2.721-0.627,4.227-3.092,5.33-5.399c0.581-1.093,0.992-2.232,1.385-3.338c0.169,0.941,0.359,1.878,0.545,2.795
		c0.127,0.623,0.253,1.248,0.373,1.873l0.031,0.103c0.191,0.449,0.238,0.897,0.141,1.369c-0.471,0.688-1.248,1.123-2.068,1.581
		c-0.436,0.243-0.885,0.494-1.307,0.802c-2.05,1.637-3.744,5.175-2.942,7.461c0.348,0.992,1.29,2.175,3.809,2.176l0.221-0.003
		c2.185-0.059,4.086-1.025,5.502-2.799c1.902-2.383,2.722-5.99,2.059-9.278c-0.536-1.334,1.894-3.637,3.669-5.317
		c0.844-0.8,1.574-1.491,2.021-2.088c0.051-0.073,0.185-0.214,0.354-0.399C210.558,41.99,211.492,40.888,211.33,40.056z
		 M193.683,59.879c-0.796-2.271,1.488-4.453,2.987-5.401c0.244-0.176,0.489-0.396,0.739-0.625c0.354-0.322,0.716-0.652,1.089-0.838
		l0.036,0.179c0.42,2.008,0.853,4.082-0.099,5.864l0,0l0,0c0,0.001-0.001,0.002-0.002,0.003c-0.6,1.125-2.056,2.075-3.18,2.075
		C194.504,61.136,193.976,60.713,193.683,59.879z M115.131,21.372l-0.534,0.851c-1.457,2.322-2.963,4.724-4.771,6.792
		c-0.743,0.775-3.557,3.112-4.361,3.166c0-0.001-0.048-0.113,0.027-0.475l-0.284-0.06l0.285,0.055l0.052-0.268l-0.012-0.015
		c0.002-0.032,0.002-0.057,0-0.071c0.959-6.329,1.949-12.873,4.606-18.947c0.966-2.575,5.118-10.022,7.716-10.022
		c0.683,0,1.261,0.603,1.71,1.764C121.325,9.611,117.042,18.026,115.131,21.372z M111.478,41.007
		c-0.119-0.066-0.229-0.128-0.313-0.17c-2.129-1.181-5.061-3.088-5.936-6.009c-0.021-0.086-0.042-0.167,0.242-0.292l0,0l0.041-0.018
		l0,0c0.271-0.108,0.425-0.142,0.638,0.031c0.885,0.62,5.896,5.537,6.46,6.928C112.269,41.445,111.816,41.193,111.478,41.007z
		 M111.063,68.584c-0.385,0-0.759-0.122-1.127-0.375c-6.441-4.029-6.184-15.977-5.428-24.633c0.027-0.61,0.036-1.223,0.044-1.833
		c0.018-1.316,0.035-2.572,0.23-3.813c0.451,0.404,0.876,0.847,1.315,1.307c0.688,0.719,1.397,1.459,2.229,2.058
		c0.979,0.798,2.102,1.203,3.188,1.594c0.69,0.249,1.344,0.484,1.938,0.796c0.745,0.468,1.245,2.454,1.486,3.409l0.063,0.246H115
		l0.034,0.129h0.001c0.008,0.033,0.016,0.063,0.022,0.096c0.11,0.429,0.211,0.864,0.31,1.342c1.421,5.311,1.146,10.695-0.796,15.58
		c-0.342,0.902-0.731,1.804-1.114,2.607C112.798,68.013,111.881,68.584,111.063,68.584z M132.957,26.044
		c3.896,2.229,4.348,7.208,4.176,12.338c-0.006,0.041-0.011,0.086-0.014,0.133c-0.007,0.112-0.015,0.225-0.011,0.332
		c-0.018,0.033-0.074,0.076-0.301,0.076c-0.283,0-0.629-0.08-0.881-0.14c-0.113-0.026-0.211-0.05-0.357-0.068
		c-1.891-0.045-3.598-0.652-5.061-1.796c-0.168-0.142-0.376-0.277-0.592-0.418c-0.359-0.235-0.77-0.502-0.905-0.785
		c-0.119-0.247-0.085-0.464-0.013-0.825c0.093-0.47,0.209-1.055-0.225-1.75l-0.117-0.131c-0.519-0.402-1.021-0.833-1.494-1.282
		c-0.205-0.599-0.259-1.223-0.152-1.896c0.154-2.641,1.58-4.28,3.719-4.28C131.438,25.552,132.205,25.726,132.957,26.044z
		 M126.333,49.724c-1.597-2.382-0.797-8.131-0.002-10.078c0.431-1.516,0.695-1.635,0.768-1.635c0.178,0,0.536,0.213,0.916,0.438
		c0.289,0.173,0.617,0.365,0.957,0.531c1.617,0.99,3.594,1.607,5.924,1.839c0.092,0,0.23-0.011,0.396-0.023
		c0.213-0.019,0.479-0.04,0.743-0.04c0.525,0,0.675,0.095,0.688,0.095h0.001c0,0.01,0,0.047-0.023,0.121l0.371,0.123L136.693,41
		c-0.569,2.167-2.843,9.273-8.165,9.741C127.558,50.826,126.851,50.496,126.333,49.724z"/>
</g>
</svg>
